<?xml version="1.0" encoding="utf-8"?>
<!-- Generator: Adobe Illustrator 23.1.0, SVG Export Plug-In . SVG Version: 6.00 Build 0)  -->
<svg version="1.1" id="Слой_2" xmlns="http://www.w3.org/2000/svg" xmlns:xlink="http://www.w3.org/1999/xlink" x="0px" y="0px"
	 viewBox="0 0 560.0012817 288" style="enable-background:new 0 0 560.0012817 288;" xml:space="preserve">
<style type="text/css">
	.st0{fill:none;stroke:#FFFFFF;stroke-miterlimit:10;}
	.st1{fill:none;}
	.st2{fill:#FFFFFF;}
	.st3{font-family:'BebasKai';}
	.st4{font-size:18px;}
	.st5{fill:#FFFFFF;stroke:#FFFFFF;stroke-miterlimit:10;}
	.st6{font-size:40px;}
</style>
<circle cx="177.927124" cy="135.1821899" r="72.0647736"/>
<rect x="128.9958649" y="94.6128845" class="st0" width="61.0254097" height="61.0254097"/>
<rect x="165.2532501" y="116.3170853" class="st0" width="61.0254097" height="61.0254097"/>
<line class="st0" x1="128.9958649" y1="153.3404236" x2="130.9148865" y2="155.6382904"/>
<line class="st0" x1="128.9958649" y1="150.2765961" x2="133.5106354" y2="155.6382904"/>
<line class="st0" x1="128.9958649" y1="147.0425568" x2="136.1063843" y2="155.6382904"/>
<line class="st0" x1="128.9958649" y1="144.2340393" x2="138.5744629" y2="155.6382904"/>
<line class="st0" x1="128.9958649" y1="140.7021332" x2="141" y2="155.6382904"/>
<line class="st0" x1="128.9958649" y1="137.1702118" x2="143.4680786" y2="155.6382904"/>
<line class="st0" x1="128.9958649" y1="133.7659607" x2="145.9787292" y2="155.6382904"/>
<line class="st0" x1="128.9958649" y1="130.5319214" x2="148.4893646" y2="155.6382904"/>
<line class="st0" x1="128.9958649" y1="126.9574432" x2="151.3829803" y2="155.6382904"/>
<line class="st0" x1="128.9958649" y1="123.1489334" x2="154.4680786" y2="155.6382904"/>
<line class="st0" x1="128.9958649" y1="119.3829803" x2="157.5957489" y2="155.6382904"/>
<line class="st0" x1="128.9958649" y1="115.2978745" x2="160.9148865" y2="155.6382904"/>
<line class="st0" x1="128.9958649" y1="110.9574432" x2="164.1702118" y2="155.6382904"/>
<line class="st0" x1="128.9958649" y1="106.6170197" x2="165.2532501" y2="152.9574432"/>
<line class="st0" x1="128.9958649" y1="102.6170197" x2="165.2532501" y2="148.8297882"/>
<line class="st0" x1="128.9958649" y1="98.7021255" x2="165.2532501" y2="144.7021332"/>
<line class="st0" x1="128.9958649" y1="94.6128845" x2="165.2532501" y2="141.2978668"/>
<line class="st0" x1="132.0638275" y1="94.6128845" x2="165.2532501" y2="137.5106354"/>
<line class="st0" x1="135.3829803" y1="94.6128845" x2="165.1412354" y2="133.9373932"/>
<line class="st0" x1="138.7426147" y1="94.6128845" x2="165.2532501" y2="129.7872314"/>
<line class="st0" x1="141.7319794" y1="94.6128845" x2="165.2532501" y2="125.1255951"/>
<line class="st0" x1="144.9553833" y1="94.6128845" x2="165.2532501" y2="121.1154861"/>
<line class="st0" x1="148.6585388" y1="94.6128845" x2="165.2532501" y2="117.3404236"/>
<line class="st0" x1="151.9979401" y1="94.6128845" x2="167.127655" y2="116.0617599"/>
<line class="st0" x1="155.5531921" y1="94.6128845" x2="169.7659607" y2="116.0617599"/>
<line class="st0" x1="159.0425568" y1="94.6128845" x2="172.488327" y2="116.0617599"/>
<line class="st0" x1="162.4468079" y1="94.6128845" x2="175.3829803" y2="116.0617599"/>
<line class="st0" x1="165.2532501" y1="94.6128845" x2="178.2340393" y2="116.3170853"/>
<line class="st0" x1="168.2340393" y1="94.6128845" x2="180.9574432" y2="116.3170853"/>
<line class="st0" x1="171.351059" y1="94.6128845" x2="183.5106354" y2="116.0617599"/>
<line class="st0" x1="174.5319214" y1="94.6128845" x2="186.4893646" y2="116.0617599"/>
<line class="st0" x1="177" y1="94.6128845" x2="189.0458679" y2="116.3170853"/>
<line class="st0" x1="179.5531921" y1="94.6128845" x2="190.0783539" y2="114.6760941"/>
<line class="st0" x1="182.0212708" y1="94.6128845" x2="190.0212708" y2="109.8692398"/>
<line class="st0" x1="184.4468079" y1="94.6128845" x2="190.1063843" y2="105.6808548"/>
<line class="st0" x1="186.475769" y1="94.6128845" x2="190.0212708" y2="101.8085098"/>
<line class="st0" x1="188.4255371" y1="94.6808548" x2="190.0212708" y2="97.8563843"/>
<rect x="165.7654419" y="131.4545898" class="st1" width="20.8457489" height="14.4950714"/>
<text transform="matrix(1 0 0 1 165.7655029 144.0544281)" class="st2 st3 st4"> YM  </text>
<line class="st5" x1="190.0212708" y1="100.1468658" x2="241.2553253" y2="100.1468658"/>
<line class="st0" x1="183.022934" y1="155.6382904" x2="183.022934" y2="207.2469635"/>
<line class="st0" x1="165.2532501" y1="165.7234039" x2="112.3892365" y2="165.7234039"/>
<rect x="267.3829651" y="125.5882797" class="st1" width="250.2127686" height="31.4191799"/>
<text transform="matrix(1 0 0 1 267.382782 153.5882874)" class="st3 st6">YANA MASiukovich </text>
</svg>
